<svg width="344" height="133" viewBox="0 0 344 133" fill="none" xmlns="http://www.w3.org/2000/svg">
<path d="M0.568 102H45.88C76.6 102 97.976 83.056 100.408 52.976C103.224 17.264 77.112 2.16 48.696 2.16H15.288L0.568 102ZM10.68 94.32L23.096 9.84H47.288C72.248 9.84 93.624 22.512 90.68 53.616C88.504 76.144 72.248 94.32 47.288 94.32H10.68ZM320.372 102H329.332L343.924 1.90399H337.14C334.964 7.536 330.356 10.608 323.06 11.12L321.908 19.44C326.132 18.8 329.972 17.904 333.044 15.6L320.372 102Z" fill="white"/>
<path d="M130 49L294 49" stroke="white" stroke-width="6"/>
</svg>
